<svg width="126" height="34" viewBox="0 0 126 34" fill="none" xmlns="http://www.w3.org/2000/svg">
<path d="M46.6525 27.7503C46.5228 27.8818 46.4233 28.0406 46.3613 28.2154C46.2993 28.3901 46.2762 28.5765 46.2938 28.7613C46.3816 29.6166 46.5482 30.4617 46.7913 31.2857C45.0475 30.878 43.9825 30.406 43.4988 30.1586C43.2244 30.0183 42.9084 29.985 42.6113 30.0652C41.7595 30.2945 40.8815 30.4099 40 30.4085C35.005 30.4085 31.25 26.8655 31.25 22.8353C31.25 18.8064 35.005 15.2622 40 15.2622C44.995 15.2622 48.75 18.8064 48.75 22.8353C48.75 24.6882 47.9788 26.4073 46.6525 27.7503ZM47.2688 32.6792C47.5649 32.7385 47.862 32.7927 48.16 32.842C48.41 32.8824 48.6 32.6199 48.5013 32.3851C48.3903 32.1208 48.2885 31.8526 48.1963 31.5811L48.1925 31.5685C47.8825 30.6597 47.63 29.6146 47.5375 28.6414C49.0713 27.0889 50 25.0568 50 22.8353C50 17.9557 45.5225 14 40 14C34.4775 14 30 17.9557 30 22.8353C30 27.715 34.4775 31.6707 40 31.6707C40.9904 31.672 41.9768 31.5422 42.9338 31.2845C43.5838 31.6164 44.9825 32.221 47.2688 32.6792V32.6792Z" fill="#5D86F0"/>
<path d="M44.4567 21.2695H39.2308V20.5556H44.4567L43.182 19.2242C43.1502 19.1909 43.125 19.1514 43.1079 19.108C43.0908 19.0646 43.082 19.0182 43.0822 18.9713C43.0823 18.9244 43.0914 18.878 43.1088 18.8347C43.1262 18.7914 43.1517 18.7521 43.1837 18.7191C43.2158 18.6861 43.2538 18.6599 43.2955 18.6421C43.3373 18.6243 43.382 18.6152 43.4272 18.6154C43.4723 18.6156 43.517 18.625 43.5586 18.6431C43.6003 18.6612 43.6381 18.6876 43.6699 18.7209L45.7692 20.9125L43.6699 23.1042C43.6394 23.1417 43.6017 23.1723 43.5592 23.1941C43.5167 23.2158 43.4704 23.2282 43.4231 23.2304C43.3758 23.2326 43.3285 23.2247 43.2843 23.2071C43.2401 23.1895 43.1999 23.1625 43.1662 23.128C43.1325 23.0935 43.106 23.0521 43.0884 23.0064C43.0708 22.9607 43.0625 22.9118 43.064 22.8626C43.0655 22.8135 43.0767 22.7652 43.0971 22.7207C43.1174 22.6763 43.1463 22.6367 43.182 22.6044L44.4567 21.2695Z" fill="#00FCED"/>
<path d="M38.4616 20.5385H37.3077V21.3077H38.4616V20.5385Z" fill="#00FCED"/>
<path d="M36.5385 20.5385H35.7693V21.3077H36.5385V20.5385Z" fill="#00FCED"/>
<path d="M36.7077 22.9517C36.7396 22.9184 36.7774 22.8919 36.8192 22.8738C36.8609 22.8557 36.9056 22.8463 36.9508 22.8462C36.996 22.846 37.0409 22.8551 37.0827 22.8729C37.1245 22.8907 37.1626 22.9168 37.1947 22.9499C37.2267 22.9829 37.2522 23.0222 37.2697 23.0655C37.2871 23.1087 37.2962 23.1551 37.2964 23.202C37.2965 23.2489 37.2878 23.2954 37.2706 23.3388C37.2535 23.3822 37.2282 23.4217 37.1964 23.455L35.9197 24.7864H41.1539V25.5002H35.9197L37.1964 26.8352C37.2322 26.8675 37.2611 26.9071 37.2815 26.9515C37.3018 26.9959 37.3131 27.0443 37.3146 27.0934C37.3161 27.1426 37.3077 27.1915 37.2901 27.2372C37.2725 27.2829 37.246 27.3243 37.2122 27.3588C37.1784 27.3933 37.1382 27.4202 37.0939 27.4379C37.0496 27.4555 37.0023 27.4634 36.9549 27.4612C36.9076 27.4589 36.8612 27.4466 36.8186 27.4248C36.7761 27.4031 36.7383 27.3725 36.7077 27.3349L34.6154 25.1433L36.7077 22.9517Z" fill="#FF9900"/>
<path d="M43.0769 24.7692H41.9231V25.5385H43.0769V24.7692Z" fill="#FF9900"/>
<path d="M44.6154 24.7692H43.8461V25.5385H44.6154V24.7692Z" fill="#FF9900"/>
<path d="M6.93531 33L6.25531 6.24C5.88198 6.26667 5.52198 6.30667 5.17531 6.36C4.85531 6.41333 4.56198 6.46666 4.29531 6.52L3.49531 3C4.24198 2.84 5.20198 2.68 6.37531 2.52C7.57531 2.33333 8.86865 2.16 10.2553 2C11.6686 1.81333 13.0553 1.66666 14.4153 1.56C15.7753 1.45333 17.002 1.4 18.0953 1.4C20.0686 1.4 21.8153 1.70667 23.3353 2.32C24.882 2.93333 26.082 3.84 26.9353 5.04C27.8153 6.21333 28.2553 7.65333 28.2553 9.36C28.2553 11.2 27.8153 12.6933 26.9353 13.84C26.0553 14.9867 24.8686 15.7067 23.3753 16L23.4153 16.08C24.5353 16.1867 25.562 16.5867 26.4953 17.28C27.4553 17.9733 28.2153 18.9067 28.7753 20.08C29.362 21.2533 29.6553 22.6533 29.6553 24.28C29.6553 26.2 29.1886 27.8133 28.2553 29.12C27.3486 30.4 26.0553 31.3733 24.3753 32.04C22.722 32.68 20.7753 33 18.5353 33H6.93531ZM11.7353 15.28C12.3753 15.28 13.1086 15.2667 13.9353 15.24C14.7886 15.2133 15.6153 15.1733 16.4153 15.12C17.242 15.0667 17.922 14.9867 18.4553 14.88C19.7886 14.6133 20.8553 14.0933 21.6553 13.32C22.482 12.5467 22.8953 11.5333 22.8953 10.28C22.8953 9.29333 22.6553 8.44 22.1753 7.72C21.6953 7 21.0686 6.44 20.2953 6.04C19.522 5.64 18.6686 5.44 17.7353 5.44C15.7886 5.44 13.7886 5.52 11.7353 5.68V15.28ZM12.7353 29.2C14.042 29.2 15.362 29.16 16.6953 29.08C18.0286 29 19.1486 28.8667 20.0553 28.68C21.5486 28.36 22.6553 27.76 23.3753 26.88C24.0953 25.9733 24.4553 24.84 24.4553 23.48C24.4553 22.4933 24.1886 21.68 23.6553 21.04C23.122 20.3733 22.4286 19.88 21.5753 19.56C20.7486 19.24 19.842 19.08 18.8553 19.08H11.7353V29.2H12.7353ZM50.7806 33.4L49.9806 1L55.6606 1.8V12.96C56.1406 12.1333 56.9406 11.4933 58.0606 11.04C59.1806 10.56 60.4206 10.32 61.7806 10.32C64.714 10.32 67.0606 11.3067 68.8206 13.28C70.5806 15.2267 71.4606 18.0933 71.4606 21.88C71.4606 25.6933 70.5673 28.5733 68.7806 30.52C66.994 32.4667 64.674 33.44 61.8206 33.44C60.354 33.44 58.994 33.1733 57.7406 32.64C56.514 32.08 55.634 31.3467 55.1006 30.44L54.7006 32.48L50.7806 33.4ZM55.5406 26.6C55.9673 27.4533 56.594 28.1733 57.4206 28.76C58.2473 29.3467 59.2473 29.64 60.4206 29.64C61.434 29.64 62.3806 29.4 63.2606 28.92C64.1673 28.4133 64.9006 27.6 65.4606 26.48C66.0206 25.3333 66.3006 23.8 66.3006 21.88C66.3006 19.9867 66.034 18.4933 65.5006 17.4C64.9673 16.28 64.2473 15.48 63.3406 15C62.4606 14.52 61.474 14.28 60.3806 14.28C59.5006 14.28 58.6873 14.5067 57.9406 14.96C57.2206 15.3867 56.634 15.9733 56.1806 16.72C55.754 17.4667 55.5406 18.32 55.5406 19.28V26.6ZM72.7572 33.4L71.9572 1L77.6372 1.8V12.96C78.1172 12.1333 78.9172 11.4933 80.0372 11.04C81.1572 10.56 82.3972 10.32 83.7572 10.32C86.6905 10.32 89.0372 11.3067 90.7972 13.28C92.5572 15.2267 93.4372 18.0933 93.4372 21.88C93.4372 25.6933 92.5439 28.5733 90.7572 30.52C88.9705 32.4667 86.6505 33.44 83.7972 33.44C82.3305 33.44 80.9705 33.1733 79.7172 32.64C78.4905 32.08 77.6105 31.3467 77.0772 30.44L76.6772 32.48L72.7572 33.4ZM77.5172 26.6C77.9439 27.4533 78.5705 28.1733 79.3972 28.76C80.2239 29.3467 81.2239 29.64 82.3972 29.64C83.4105 29.64 84.3572 29.4 85.2372 28.92C86.1439 28.4133 86.8772 27.6 87.4372 26.48C87.9972 25.3333 88.2772 23.8 88.2772 21.88C88.2772 19.9867 88.0105 18.4933 87.4772 17.4C86.9439 16.28 86.2239 15.48 85.3172 15C84.4372 14.52 83.4505 14.28 82.3572 14.28C81.4772 14.28 80.6639 14.5067 79.9172 14.96C79.1972 15.3867 78.6105 15.9733 78.1572 16.72C77.7305 17.4667 77.5172 18.32 77.5172 19.28V26.6ZM94.2538 33.52V1L100.054 1.8L99.2538 33L94.2538 33.52ZM121.093 29.08C120.319 30.12 119.493 30.96 118.613 31.6C117.759 32.24 116.773 32.7067 115.653 33C114.533 33.2933 113.159 33.44 111.533 33.44C109.213 33.44 107.226 32.9333 105.573 31.92C103.919 30.88 102.653 29.4933 101.773 27.76C100.893 26 100.453 24.04 100.453 21.88C100.453 19.6933 100.906 17.7333 101.813 16C102.719 14.24 103.986 12.8533 105.613 11.84C107.266 10.8267 109.186 10.32 111.373 10.32C113.506 10.32 115.333 10.8133 116.853 11.8C118.399 12.76 119.586 14.1467 120.413 15.96C121.239 17.7467 121.653 19.88 121.653 22.36V23.04H107.173L106.293 19.92L116.133 19.12C116.053 17.7067 115.653 16.56 114.933 15.68C114.239 14.7733 113.119 14.32 111.573 14.32C109.786 14.32 108.306 14.9867 107.133 16.32C105.986 17.6267 105.413 19.4933 105.413 21.92C105.413 23.6533 105.733 25.0933 106.373 26.24C107.039 27.36 107.866 28.2 108.853 28.76C109.866 29.2933 110.879 29.56 111.893 29.56C113.599 29.56 115.119 29.28 116.453 28.72C117.813 28.1333 118.879 27.3467 119.653 26.36L121.093 29.08Z" fill="#5D86F0"/>
</svg>
