<svg width="140" height="48" viewBox="0 0 140 48" fill="none" xmlns="http://www.w3.org/2000/svg">
<path d="M69.2065 37.5106C69.0412 37.6781 68.9146 37.8803 68.8356 38.1029C68.7567 38.3254 68.7273 38.5628 68.7496 38.7981C68.8615 39.8872 69.0736 40.9635 69.3831 42.0128C67.1625 41.4937 65.8063 40.8925 65.1902 40.5775C64.8408 40.3988 64.4384 40.3564 64.06 40.4585C62.9753 40.7505 61.8573 40.8975 60.7347 40.8957C54.3737 40.8957 49.5918 36.3839 49.5918 31.2515C49.5918 26.1208 54.3737 21.6074 60.7347 21.6074C67.0957 21.6074 71.8776 26.1208 71.8776 31.2515C71.8776 33.6112 70.8954 35.8004 69.2065 37.5106ZM69.9912 43.7874C70.3684 43.8629 70.7468 43.932 71.1262 43.9947C71.4446 44.0462 71.6865 43.7118 71.5608 43.4129C71.4194 43.0763 71.2899 42.7348 71.1724 42.389L71.1676 42.3729C70.7728 41.2156 70.4513 39.8847 70.3335 38.6454C72.2867 36.6684 73.4694 34.0805 73.4694 31.2515C73.4694 25.0375 67.7674 20 60.7347 20C53.702 20 48 25.0375 48 31.2515C48 37.4656 53.702 42.5031 60.7347 42.5031C61.996 42.5048 63.252 42.3394 64.4707 42.0112C65.2985 42.434 67.0798 43.2039 69.9912 43.7874Z" fill="#5D86F0"/>
<path d="M66.4102 29.2574H59.7551V28.3483H66.4102L64.7869 26.6528C64.7464 26.6104 64.7143 26.5602 64.6925 26.5049C64.6707 26.4497 64.6596 26.3905 64.6598 26.3308C64.66 26.271 64.6715 26.2119 64.6937 26.1568C64.7159 26.1017 64.7483 26.0517 64.7891 26.0096C64.8299 25.9675 64.8783 25.9342 64.9315 25.9116C64.9846 25.8889 65.0416 25.8773 65.0991 25.8776C65.1566 25.8778 65.2135 25.8897 65.2665 25.9128C65.3196 25.9358 65.3677 25.9695 65.4082 26.0119L68.0816 28.8029L65.4082 31.5939C65.3693 31.6417 65.3213 31.6807 65.2672 31.7084C65.2131 31.736 65.1541 31.7518 65.0939 31.7546C65.0337 31.7575 64.9735 31.7474 64.9172 31.7249C64.8609 31.7025 64.8097 31.6682 64.7668 31.6242C64.7238 31.5803 64.6901 31.5275 64.6677 31.4694C64.6453 31.4112 64.6347 31.3489 64.6366 31.2863C64.6385 31.2237 64.6528 31.1622 64.6787 31.1056C64.7046 31.049 64.7414 30.9986 64.7869 30.9575L66.4102 29.2574Z" fill="#00FCED"/>
<path d="M58.7755 28.3265H57.3061V29.3061H58.7755V28.3265Z" fill="#00FCED"/>
<path d="M56.3265 28.3265H55.3469V29.3061H56.3265V28.3265Z" fill="#00FCED"/>
<path d="M56.5421 31.3997C56.5826 31.3573 56.6309 31.3236 56.684 31.3005C56.7371 31.2775 56.7941 31.2655 56.8517 31.2653C56.9092 31.2651 56.9663 31.2767 57.0196 31.2993C57.0729 31.322 57.1213 31.3553 57.1622 31.3974C57.203 31.4395 57.2355 31.4895 57.2577 31.5446C57.2799 31.5997 57.2915 31.6588 57.2917 31.7185C57.2919 31.7782 57.2808 31.8374 57.2589 31.8927C57.2371 31.9479 57.2049 31.9982 57.1644 32.0406L55.5385 33.7361H62.2041V34.6452H55.5385L57.1644 36.3452C57.2099 36.3863 57.2468 36.4368 57.2727 36.4933C57.2986 36.5499 57.313 36.6114 57.3149 36.6741C57.3168 36.7367 57.3062 36.799 57.2837 36.8571C57.2613 36.9153 57.2275 36.968 57.1845 37.012C57.1415 37.056 57.0902 37.0903 57.0338 37.1127C56.9775 37.1351 56.9172 37.1452 56.8569 37.1424C56.7966 37.1395 56.7375 37.1238 56.6833 37.0961C56.6291 37.0685 56.581 37.0295 56.5421 36.9816L53.8776 34.1906L56.5421 31.3997Z" fill="#FF9900"/>
<path d="M64.6531 33.7143H63.1837V34.6939H64.6531V33.7143Z" fill="#FF9900"/>
<path d="M66.6122 33.7143H65.6327V34.6939H66.6122V33.7143Z" fill="#FF9900"/>
<path d="M17.8828 32.6562L24.3281 32.5625C24.0781 34.9375 23.4141 37.0312 22.3359 38.8438C21.2734 40.6562 19.8281 42.0625 18 43.0625C16.1875 44.0625 14.0469 44.5312 11.5781 44.4688C9.51562 44.4219 7.82031 43.9766 6.49219 43.1328C5.16406 42.2734 4.14062 41.1484 3.42188 39.7578C2.70312 38.3516 2.25781 36.7969 2.08594 35.0938C1.91406 33.375 1.9375 31.625 2.15625 29.8438L3.04688 24.0547C3.32812 22.1641 3.80469 20.3359 4.47656 18.5703C5.14844 16.7891 6.03906 15.2031 7.14844 13.8125C8.25781 12.4062 9.61719 11.3047 11.2266 10.5078C12.8516 9.71094 14.7266 9.33594 16.8516 9.38281C19.3047 9.42969 21.2422 10 22.6641 11.0938C24.1016 12.1719 25.1328 13.6172 25.7578 15.4297C26.3828 17.2422 26.7031 19.25 26.7188 21.4531L20.0156 21.4297C20.0781 20.3672 20.0625 19.3594 19.9688 18.4062C19.875 17.4375 19.5625 16.6484 19.0312 16.0391C18.5156 15.4141 17.6172 15.0781 16.3359 15.0312C15.0859 14.9844 14.0547 15.2344 13.2422 15.7812C12.4453 16.3281 11.8047 17.0547 11.3203 17.9609C10.8516 18.8672 10.4922 19.8516 10.2422 20.9141C10.0078 21.9766 9.82031 23.0078 9.67969 24.0078L8.85938 29.8672C8.75 30.6797 8.64844 31.5859 8.55469 32.5859C8.47656 33.5859 8.5 34.5547 8.625 35.4922C8.75 36.4297 9.07031 37.2109 9.58594 37.8359C10.1016 38.4609 10.9375 38.8047 12.0938 38.8672C13.4531 38.9141 14.5156 38.6641 15.2812 38.1172C16.0469 37.5703 16.6172 36.8203 16.9922 35.8672C17.3828 34.8984 17.6797 33.8281 17.8828 32.6562ZM38.9297 8L32.6953 44H26.2734L32.5312 8H38.9297ZM34.1484 30.4531L32.5312 30.5234C32.6719 29.2578 32.9375 27.9062 33.3281 26.4688C33.7188 25.0156 34.2656 23.6562 34.9688 22.3906C35.6875 21.1094 36.6094 20.0703 37.7344 19.2734C38.8594 18.4766 40.2109 18.1016 41.7891 18.1484C43.1172 18.1797 44.1797 18.5078 44.9766 19.1328C45.7891 19.7422 46.3828 20.5312 46.7578 21.5C47.1484 22.4688 47.3828 23.5234 47.4609 24.6641C47.5391 25.7891 47.5156 26.8984 47.3906 27.9922L44.7188 44H38.3203L40.9688 27.9219C41.0312 27.3125 41.0547 26.6797 41.0391 26.0234C41.0234 25.3516 40.8672 24.7891 40.5703 24.3359C40.2734 23.8672 39.7109 23.6328 38.8828 23.6328C38.0078 23.5859 37.2812 23.7969 36.7031 24.2656C36.1406 24.7188 35.6875 25.3047 35.3438 26.0234C35 26.7266 34.7344 27.4766 34.5469 28.2734C34.375 29.0547 34.2422 29.7812 34.1484 30.4531ZM86.4844 18.6406L85.5938 23.5859H73.0078L73.8984 18.6406H86.4844ZM77.8828 12.3828H84.2578L80.1797 36.3125C80.1328 36.7344 80.1094 37.1328 80.1094 37.5078C80.1094 37.8828 80.1953 38.1953 80.3672 38.4453C80.5547 38.6953 80.8984 38.8281 81.3984 38.8438C81.6641 38.8438 81.9219 38.8281 82.1719 38.7969C82.4375 38.7656 82.7031 38.7266 82.9688 38.6797L82.4531 43.8594C81.9062 44.0625 81.3516 44.2109 80.7891 44.3047C80.2266 44.3984 79.6484 44.4375 79.0547 44.4219C77.6016 44.4062 76.4688 44.0469 75.6562 43.3438C74.8438 42.625 74.2891 41.7109 73.9922 40.6016C73.6953 39.4766 73.6094 38.2656 73.7344 36.9688L77.8828 12.3828ZM100.781 18.6406L99.8906 23.5859H87.3047L88.1953 18.6406H100.781ZM92.1797 12.3828H98.5547L94.4766 36.3125C94.4297 36.7344 94.4062 37.1328 94.4062 37.5078C94.4062 37.8828 94.4922 38.1953 94.6641 38.4453C94.8516 38.6953 95.1953 38.8281 95.6953 38.8438C95.9609 38.8438 96.2188 38.8281 96.4688 38.7969C96.7344 38.7656 97 38.7266 97.2656 38.6797L96.75 43.8594C96.2031 44.0625 95.6484 44.2109 95.0859 44.3047C94.5234 44.3984 93.9453 44.4375 93.3516 44.4219C91.8984 44.4062 90.7656 44.0469 89.9531 43.3438C89.1406 42.625 88.5859 41.7109 88.2891 40.6016C87.9922 39.4766 87.9062 38.2656 88.0312 36.9688L92.1797 12.3828ZM110.18 44.4688C108.492 44.4375 107.047 44.1094 105.844 43.4844C104.641 42.8594 103.68 42.0078 102.961 40.9297C102.242 39.8359 101.75 38.6016 101.484 37.2266C101.219 35.8359 101.164 34.3516 101.32 32.7734L101.555 30.6875C101.773 29.0625 102.156 27.4922 102.703 25.9766C103.25 24.4609 103.984 23.1094 104.906 21.9219C105.844 20.7188 106.992 19.7812 108.352 19.1094C109.711 18.4375 111.305 18.1172 113.133 18.1484C114.883 18.1953 116.297 18.5859 117.375 19.3203C118.469 20.0391 119.289 20.9922 119.836 22.1797C120.398 23.3672 120.742 24.6875 120.867 26.1406C120.992 27.5781 120.961 29.0312 120.773 30.5L120.352 33.5H103.828L104.648 28.8828L114.656 28.9062L114.773 28.25C114.883 27.5938 114.922 26.9141 114.891 26.2109C114.859 25.4922 114.672 24.8906 114.328 24.4062C113.984 23.9062 113.391 23.6328 112.547 23.5859C111.625 23.5391 110.875 23.75 110.297 24.2188C109.734 24.6719 109.297 25.2734 108.984 26.0234C108.672 26.7734 108.445 27.5625 108.305 28.3906C108.18 29.2031 108.078 29.9688 108 30.6875L107.742 32.7969C107.664 33.5 107.633 34.2109 107.648 34.9297C107.664 35.6328 107.758 36.2891 107.93 36.8984C108.117 37.5078 108.445 38.0078 108.914 38.3984C109.398 38.7891 110.086 38.9922 110.977 39.0078C112.07 39.0391 113.078 38.8359 114 38.3984C114.938 37.9609 115.812 37.3984 116.625 36.7109L118.805 40.7188C118.148 41.5938 117.352 42.3203 116.414 42.8984C115.477 43.4609 114.461 43.8672 113.367 44.1172C112.289 44.3672 111.227 44.4844 110.18 44.4688ZM131.953 24.6406L128.602 44H122.203L126.609 18.6406H132.656L131.953 24.6406ZM138.68 18.4297L137.812 24.9688C137.469 24.8906 137.117 24.8359 136.758 24.8047C136.414 24.7578 136.078 24.7344 135.75 24.7344C134.922 24.7188 134.211 24.8516 133.617 25.1328C133.039 25.4141 132.555 25.8125 132.164 26.3281C131.773 26.8281 131.445 27.3984 131.18 28.0391C130.93 28.6797 130.734 29.3438 130.594 30.0312L129.469 29.5625C129.594 28.5781 129.789 27.4297 130.055 26.1172C130.336 24.8047 130.734 23.5391 131.25 22.3203C131.781 21.1016 132.484 20.0938 133.359 19.2969C134.234 18.5 135.336 18.1016 136.664 18.1016C137.023 18.1172 137.359 18.1562 137.672 18.2188C138 18.2812 138.336 18.3516 138.68 18.4297Z" fill="#5D86F0"/>
</svg>
