<svg width="121" height="32" viewBox="0 0 121 32" fill="none" xmlns="http://www.w3.org/2000/svg">
<path d="M60.6525 24.7503C60.5228 24.8818 60.4233 25.0406 60.3613 25.2154C60.2993 25.3901 60.2762 25.5765 60.2938 25.7613C60.3816 26.6166 60.5482 27.4617 60.7913 28.2857C59.0475 27.878 57.9825 27.406 57.4988 27.1586C57.2244 27.0183 56.9084 26.985 56.6113 27.0652C55.7595 27.2945 54.8815 27.4099 54 27.4085C49.005 27.4085 45.25 23.8655 45.25 19.8353C45.25 15.8064 49.005 12.2622 54 12.2622C58.995 12.2622 62.75 15.8064 62.75 19.8353C62.75 21.6882 61.9788 23.4073 60.6525 24.7503ZM61.2688 29.6792C61.5649 29.7385 61.862 29.7927 62.16 29.842C62.41 29.8824 62.6 29.6199 62.5013 29.3851C62.3903 29.1208 62.2885 28.8526 62.1963 28.5811L62.1925 28.5685C61.8825 27.6597 61.63 26.6146 61.5375 25.6414C63.0713 24.0889 64 22.0568 64 19.8353C64 14.9557 59.5225 11 54 11C48.4775 11 44 14.9557 44 19.8353C44 24.715 48.4775 28.6707 54 28.6707C54.9904 28.672 55.9768 28.5422 56.9338 28.2845C57.5838 28.6164 58.9825 29.221 61.2688 29.6792V29.6792Z" fill="#5D86F0"/>
<path d="M58.4567 18.2695H53.2308V17.5556H58.4567L57.182 16.2242C57.1502 16.1909 57.125 16.1514 57.1079 16.108C57.0908 16.0646 57.082 16.0182 57.0822 15.9713C57.0823 15.9244 57.0914 15.878 57.1088 15.8347C57.1262 15.7914 57.1517 15.7521 57.1837 15.7191C57.2158 15.6861 57.2538 15.6599 57.2955 15.6421C57.3373 15.6243 57.382 15.6152 57.4272 15.6154C57.4723 15.6156 57.517 15.625 57.5586 15.6431C57.6003 15.6612 57.6381 15.6876 57.6699 15.7209L59.7692 17.9125L57.6699 20.1042C57.6394 20.1417 57.6017 20.1723 57.5592 20.1941C57.5167 20.2158 57.4704 20.2282 57.4231 20.2304C57.3758 20.2326 57.3285 20.2247 57.2843 20.2071C57.2401 20.1895 57.1999 20.1625 57.1662 20.128C57.1325 20.0935 57.106 20.0521 57.0884 20.0064C57.0708 19.9607 57.0625 19.9118 57.064 19.8626C57.0655 19.8135 57.0767 19.7652 57.0971 19.7207C57.1174 19.6763 57.1463 19.6367 57.182 19.6044L58.4567 18.2695Z" fill="#00FCED"/>
<path d="M52.4616 17.5385H51.3077V18.3077H52.4616V17.5385Z" fill="#00FCED"/>
<path d="M50.5385 17.5385H49.7693V18.3077H50.5385V17.5385Z" fill="#00FCED"/>
<path d="M50.7077 19.9517C50.7396 19.9184 50.7774 19.8919 50.8192 19.8738C50.8609 19.8557 50.9056 19.8463 50.9508 19.8462C50.996 19.846 51.0409 19.8551 51.0827 19.8729C51.1245 19.8907 51.1626 19.9168 51.1947 19.9499C51.2267 19.9829 51.2522 20.0222 51.2697 20.0655C51.2871 20.1087 51.2962 20.1551 51.2964 20.202C51.2965 20.2489 51.2878 20.2954 51.2706 20.3388C51.2535 20.3822 51.2282 20.4217 51.1964 20.4549L49.9197 21.7863H55.1539V22.5002H49.9197L51.1964 23.8352C51.2322 23.8675 51.2611 23.9071 51.2815 23.9515C51.3018 23.9959 51.3131 24.0442 51.3146 24.0934C51.3161 24.1426 51.3077 24.1915 51.2901 24.2372C51.2725 24.2828 51.246 24.3242 51.2122 24.3588C51.1784 24.3933 51.1382 24.4202 51.0939 24.4378C51.0496 24.4555 51.0023 24.4634 50.9549 24.4612C50.9076 24.4589 50.8612 24.4466 50.8186 24.4248C50.7761 24.4031 50.7383 24.3725 50.7077 24.3349L48.6154 22.1433L50.7077 19.9517Z" fill="#FF9900"/>
<path d="M57.0769 21.7692H55.9231V22.5385H57.0769V21.7692Z" fill="#FF9900"/>
<path d="M58.6154 21.7692H57.8461V22.5385H58.6154V21.7692Z" fill="#FF9900"/>
<path d="M18.0195 20.5469L23.3906 20.4688C23.1823 22.4479 22.6289 24.1927 21.7305 25.7031C20.8451 27.2135 19.6406 28.3854 18.1172 29.2188C16.6068 30.0521 14.8229 30.4427 12.7656 30.3906C11.0469 30.3516 9.63411 29.9805 8.52734 29.2773C7.42057 28.5612 6.56771 27.6237 5.96875 26.4648C5.36979 25.293 4.9987 23.9974 4.85547 22.5781C4.71224 21.1458 4.73177 19.6875 4.91406 18.2031L5.65625 13.3789C5.89062 11.8034 6.28776 10.2799 6.84766 8.80859C7.40755 7.32422 8.14974 6.0026 9.07422 4.84375C9.9987 3.67188 11.1315 2.75391 12.4727 2.08984C13.8268 1.42578 15.3893 1.11328 17.1602 1.15234C19.2044 1.19141 20.819 1.66667 22.0039 2.57812C23.2018 3.47656 24.0612 4.68099 24.582 6.19141C25.1029 7.70182 25.3698 9.375 25.3828 11.2109L19.7969 11.1914C19.849 10.306 19.8359 9.46615 19.7578 8.67188C19.6797 7.86458 19.4193 7.20703 18.9766 6.69922C18.5469 6.17839 17.7982 5.89844 16.7305 5.85938C15.6888 5.82031 14.8294 6.02865 14.1523 6.48438C13.4883 6.9401 12.9544 7.54557 12.5508 8.30078C12.1602 9.05599 11.8607 9.8763 11.6523 10.7617C11.457 11.6471 11.3008 12.5065 11.1836 13.3398L10.5 18.2227C10.4089 18.8997 10.3242 19.6549 10.2461 20.4883C10.181 21.3216 10.2005 22.1289 10.3047 22.9102C10.4089 23.6914 10.6758 24.3424 11.1055 24.8633C11.5352 25.3841 12.2318 25.6706 13.1953 25.7227C14.3281 25.7617 15.2135 25.5534 15.8516 25.0977C16.4896 24.6419 16.9648 24.0169 17.2773 23.2227C17.6029 22.4154 17.8503 21.5234 18.0195 20.5469ZM35.5586 0L30.3633 30H25.0117L30.2266 0H35.5586ZM31.5742 18.7109L30.2266 18.7695C30.3438 17.7148 30.5651 16.5885 30.8906 15.3906C31.2161 14.1797 31.6719 13.0469 32.2578 11.9922C32.8568 10.9245 33.625 10.0586 34.5625 9.39453C35.5 8.73047 36.6263 8.41797 37.9414 8.45703C39.0482 8.48307 39.9336 8.75651 40.5977 9.27734C41.2747 9.78516 41.7695 10.4427 42.082 11.25C42.4076 12.0573 42.6029 12.9362 42.668 13.8867C42.7331 14.8242 42.7135 15.7487 42.6094 16.6602L40.3828 30H35.0508L37.2578 16.6016C37.3099 16.0938 37.3294 15.5664 37.3164 15.0195C37.3034 14.4596 37.1732 13.9909 36.9258 13.6133C36.6784 13.2227 36.2096 13.0273 35.5195 13.0273C34.7904 12.9883 34.1849 13.1641 33.7031 13.5547C33.2344 13.9323 32.8568 14.4206 32.5703 15.0195C32.2839 15.6055 32.0625 16.2305 31.9062 16.8945C31.763 17.5456 31.6523 18.151 31.5742 18.7109ZM75.1875 8.86719L74.4453 12.9883H63.957L64.6992 8.86719H75.1875ZM68.0195 3.65234H73.332L69.9336 23.5938C69.8945 23.9453 69.875 24.2773 69.875 24.5898C69.875 24.9023 69.9466 25.1628 70.0898 25.3711C70.2461 25.5794 70.5326 25.6901 70.9492 25.7031C71.1706 25.7031 71.3854 25.6901 71.5938 25.6641C71.8151 25.638 72.0365 25.6055 72.2578 25.5664L71.8281 29.8828C71.3724 30.0521 70.9102 30.1758 70.4414 30.2539C69.9727 30.332 69.4909 30.3646 68.9961 30.3516C67.7852 30.3385 66.8411 30.0391 66.1641 29.4531C65.487 28.8542 65.0247 28.0924 64.7773 27.168C64.5299 26.2305 64.4583 25.2214 64.5625 24.1406L68.0195 3.65234ZM87.1016 8.86719L86.3594 12.9883H75.8711L76.6133 8.86719H87.1016ZM79.9336 3.65234H85.2461L81.8477 23.5938C81.8086 23.9453 81.7891 24.2773 81.7891 24.5898C81.7891 24.9023 81.8607 25.1628 82.0039 25.3711C82.1602 25.5794 82.4466 25.6901 82.8633 25.7031C83.0846 25.7031 83.2995 25.6901 83.5078 25.6641C83.7292 25.638 83.9505 25.6055 84.1719 25.5664L83.7422 29.8828C83.2865 30.0521 82.8242 30.1758 82.3555 30.2539C81.8867 30.332 81.4049 30.3646 80.9102 30.3516C79.6992 30.3385 78.7552 30.0391 78.0781 29.4531C77.401 28.8542 76.9388 28.0924 76.6914 27.168C76.444 26.2305 76.3724 25.2214 76.4766 24.1406L79.9336 3.65234ZM94.9336 30.3906C93.5273 30.3646 92.3229 30.0911 91.3203 29.5703C90.3177 29.0495 89.5169 28.3398 88.918 27.4414C88.319 26.5299 87.9089 25.5013 87.6875 24.3555C87.4661 23.1966 87.4206 21.9596 87.5508 20.6445L87.7461 18.9062C87.9284 17.5521 88.2474 16.2435 88.7031 14.9805C89.1589 13.7174 89.7708 12.5911 90.5391 11.6016C91.3203 10.599 92.2773 9.81771 93.4102 9.25781C94.543 8.69792 95.8711 8.43099 97.3945 8.45703C98.8529 8.49609 100.031 8.82161 100.93 9.43359C101.841 10.0326 102.525 10.8268 102.98 11.8164C103.449 12.806 103.736 13.9062 103.84 15.1172C103.944 16.3151 103.918 17.526 103.762 18.75L103.41 21.25H89.6406L90.3242 17.4023L98.6641 17.4219L98.7617 16.875C98.8529 16.3281 98.8854 15.7617 98.8594 15.1758C98.8333 14.5768 98.6771 14.0755 98.3906 13.6719C98.1042 13.2552 97.6094 13.0273 96.9062 12.9883C96.138 12.9492 95.513 13.125 95.0312 13.5156C94.5625 13.8932 94.1979 14.3945 93.9375 15.0195C93.6771 15.6445 93.4883 16.3021 93.3711 16.9922C93.2669 17.6693 93.1823 18.3073 93.1172 18.9062L92.9023 20.6641C92.8372 21.25 92.8112 21.8424 92.8242 22.4414C92.8372 23.0273 92.9154 23.5742 93.0586 24.082C93.2148 24.5898 93.4883 25.0065 93.8789 25.332C94.2826 25.6576 94.8555 25.8268 95.5977 25.8398C96.5091 25.8659 97.349 25.6966 98.1172 25.332C98.8984 24.9674 99.6276 24.4987 100.305 23.9258L102.121 27.2656C101.574 27.9948 100.91 28.6003 100.129 29.082C99.3477 29.5508 98.5013 29.8893 97.5898 30.0977C96.6914 30.306 95.806 30.4036 94.9336 30.3906ZM113.078 13.8672L110.285 30H104.953L108.625 8.86719H113.664L113.078 13.8672ZM118.684 8.69141L117.961 14.1406C117.674 14.0755 117.382 14.0299 117.082 14.0039C116.796 13.9648 116.516 13.9453 116.242 13.9453C115.552 13.9323 114.96 14.043 114.465 14.2773C113.983 14.5117 113.579 14.8438 113.254 15.2734C112.928 15.6901 112.655 16.1654 112.434 16.6992C112.225 17.2331 112.062 17.7865 111.945 18.3594L111.008 17.9688C111.112 17.1484 111.275 16.1914 111.496 15.0977C111.73 14.0039 112.062 12.9492 112.492 11.9336C112.935 10.918 113.521 10.0781 114.25 9.41406C114.979 8.75 115.897 8.41797 117.004 8.41797C117.303 8.43099 117.583 8.46354 117.844 8.51562C118.117 8.56771 118.397 8.6263 118.684 8.69141Z" fill="#5D86F0"/>
</svg>
