<svg width="62" height="50" viewBox="0 0 62 50" fill="none" xmlns="http://www.w3.org/2000/svg">
<path d="M58.1849 3.57143H27.664V21.0714H23.8489V3.57143C23.8489 2.62423 24.2508 1.71582 24.9663 1.04605C25.6818 0.376274 26.6521 0 27.664 0H58.1849C59.1967 0 60.1671 0.376274 60.8826 1.04605C61.5981 1.71582 62 2.62423 62 3.57143V46.4286C62 47.3758 61.5981 48.2842 60.8826 48.954C60.1671 49.6237 59.1967 50 58.1849 50H27.664C26.6521 50 25.6818 49.6237 24.9663 48.954C24.2508 48.2842 23.8489 47.3758 23.8489 46.4286H58.1849V3.57143Z" fill="#5D86F0"/>
<path d="M5.51316 35.3809H27.4648V32.5886H5.51316L10.8676 27.3812C11.0012 27.251 11.107 27.0966 11.1789 26.9269C11.2509 26.7572 11.2876 26.5754 11.2869 26.392C11.2862 26.2085 11.2482 26.027 11.175 25.8578C11.1018 25.6885 10.9949 25.5349 10.8604 25.4057C10.7258 25.2764 10.5662 25.1741 10.3908 25.1045C10.2153 25.0348 10.0274 24.9994 9.83777 25C9.64814 25.0007 9.46049 25.0374 9.28555 25.1082C9.11061 25.179 8.95179 25.2825 8.81818 25.4126L0 33.9848L8.81818 42.5569C8.94651 42.7038 9.10485 42.8235 9.28327 42.9085C9.46169 42.9935 9.65634 43.0419 9.85501 43.0506C10.0537 43.0594 10.2521 43.0283 10.4377 42.9594C10.6234 42.8905 10.7923 42.7852 10.934 42.6501C11.0756 42.5151 11.1868 42.3531 11.2607 42.1745C11.3346 41.9959 11.3695 41.8045 11.3632 41.6122C11.357 41.4199 11.3097 41.2309 11.2245 41.0572C11.1392 40.8834 11.0177 40.7285 10.8676 40.6023L5.51316 35.3809Z" fill="#5D86F0"/>
<path d="M30.3865 32.6585H35.0614V35.3936H30.3865V32.6585Z" fill="#5D86F0"/>
<path d="M38.5676 32.6585H41.4894V35.3936H38.5676V32.6585Z" fill="#5D86F0"/>
</svg>
