<svg width="52" height="51" viewBox="0 0 52 51" fill="none" xmlns="http://www.w3.org/2000/svg">
<path d="M48.4138 3.58621H19.7241V21.1586H16.1379V3.58621C16.1379 2.63509 16.5158 1.72292 17.1883 1.05038C17.8609 0.377831 18.773 0 19.7241 0H48.4138C49.3649 0 50.2771 0.377831 50.9496 1.05038C51.6222 1.72292 52 2.63509 52 3.58621V46.6207C52 47.5718 51.6222 48.484 50.9496 49.1565C50.2771 49.8291 49.3649 50.2069 48.4138 50.2069H19.7241C18.773 50.2069 17.8609 49.8291 17.1883 49.1565C16.5158 48.484 16.1379 47.5718 16.1379 46.6207H48.4138V3.58621Z" fill="#5D86F0"/>
<path d="M10.4717 23.8124C10.8148 23.5187 11.256 23.3652 11.7073 23.3826C12.1586 23.4 12.5866 23.5871 12.906 23.9065C13.2253 24.2258 13.4124 24.6539 13.4298 25.1052C13.4473 25.5564 13.2938 25.9977 13 26.3407L6.93932 32.2759H32.9393C33.4149 32.2759 33.871 32.4648 34.2072 32.8011C34.5435 33.1373 34.7324 33.5934 34.7324 34.069C34.7324 34.5445 34.5435 35.0006 34.2072 35.3369C33.871 35.6732 33.4149 35.8621 32.9393 35.8621H6.93932L13 42.0662C13.1877 42.227 13.3402 42.4248 13.4478 42.6472C13.5554 42.8697 13.6159 43.112 13.6254 43.359C13.635 43.6059 13.5934 43.8521 13.5032 44.0822C13.4131 44.3123 13.2763 44.5213 13.1016 44.6961C12.9268 44.8708 12.7179 45.0076 12.4878 45.0977C12.2577 45.1879 12.0114 45.2295 11.7645 45.2199C11.5175 45.2104 11.2752 45.1499 11.0528 45.0423C10.8303 44.9347 10.6325 44.7822 10.4717 44.5945L1.2147e-05 34.1945L10.4717 23.8124Z" fill="#5D86F0"/>
</svg>
