<svg width="74" height="57" viewBox="0 0 74 57" fill="none" xmlns="http://www.w3.org/2000/svg">
<path d="M64.5654 18.9767L27 18.9767L27 13.8724L64.5654 13.8724L55.4025 4.35285C55.1739 4.1149 54.9928 3.83273 54.8697 3.52246C54.7465 3.21219 54.6838 2.8799 54.6849 2.54456C54.6861 2.20922 54.7511 1.8774 54.8764 1.56804C55.0016 1.25868 55.1846 0.977841 55.4149 0.741557C55.6452 0.505274 55.9182 0.318174 56.2185 0.19094C56.5187 0.0637055 56.8403 -0.00117051 57.1648 1.44719e-05C57.4893 0.00119945 57.8104 0.0684224 58.1098 0.197846C58.4092 0.32727 58.681 0.51636 58.9096 0.754319L74 16.4245L58.9096 32.0948C58.69 32.3634 58.419 32.5823 58.1137 32.7376C57.8084 32.8929 57.4753 32.9813 57.1353 32.9974C56.7953 33.0134 56.4558 32.9566 56.1381 32.8306C55.8204 32.7046 55.5313 32.5121 55.2889 32.2652C55.0466 32.0183 54.8562 31.7223 54.7298 31.3958C54.6034 31.0693 54.5436 30.7193 54.5543 30.3678C54.565 30.0163 54.6458 29.6709 54.7918 29.3532C54.9378 29.0355 55.1457 28.7525 55.4025 28.5217L64.5654 18.9767Z" fill="#00FCED"/>
<path d="M22 14L14 14L14 19L22 19L22 14Z" fill="#00FCED"/>
<path d="M8 14L3 14L3 19L8 19L8 14Z" fill="#00FCED"/>
<path d="M9.43458 42.9767L47 42.9767L47 37.8724L9.43458 37.8724L18.5975 28.3529C18.8261 28.1149 19.0072 27.8327 19.1303 27.5225C19.2535 27.2122 19.3162 26.8799 19.3151 26.5446C19.3139 26.2092 19.2489 25.8774 19.1236 25.568C18.9984 25.2587 18.8154 24.9778 18.5851 24.7416C18.3548 24.5053 18.0818 24.3182 17.7815 24.1909C17.4813 24.0637 17.1597 23.9988 16.8352 24C16.5107 24.0012 16.1896 24.0684 15.8902 24.1978C15.5908 24.3273 15.319 24.5164 15.0904 24.7543L-1.43588e-06 40.4245L15.0904 56.0948C15.31 56.3634 15.581 56.5823 15.8863 56.7376C16.1916 56.8929 16.5247 56.9813 16.8647 56.9974C17.2047 57.0134 17.5442 56.9566 17.8619 56.8306C18.1796 56.7046 18.4687 56.5121 18.7111 56.2652C18.9534 56.0183 19.1438 55.7224 19.2702 55.3958C19.3966 55.0693 19.4564 54.7193 19.4457 54.3678C19.435 54.0163 19.3542 53.6709 19.2082 53.3532C19.0622 53.0355 18.8543 52.7525 18.5975 52.5217L9.43458 42.9767Z" fill="#FCB500"/>
<path d="M52 38L60 38L60 43L52 43L52 38Z" fill="#FCB500"/>
<path d="M66 38L71 38L71 43L66 43L66 38Z" fill="#FCB500"/>
<circle r="5.5" transform="matrix(1 0 0 -1 8.5 5.5)" fill="#FF0404"/>
<circle r="5.5" transform="matrix(1 0 0 -1 22.5 5.5)" fill="#FF0404"/>
<circle r="5.5" transform="matrix(1 0 0 -1 36.5 5.5)" fill="#FF0404"/>
</svg>
