<svg width="200" height="161" viewBox="0 0 200 161" fill="none" xmlns="http://www.w3.org/2000/svg">
<path d="M133.009 44.3894L150.394 27.0043L151.553 19.684C119.873 -9.123 69.5126 -5.8566 40.9532 26.4996C33.0212 35.4863 27.1361 46.6902 23.9978 58.2597L30.2244 57.3823L64.9938 51.648L67.6782 48.9035C83.1446 31.9175 109.295 29.6324 127.153 44.0847L133.009 44.3894V44.3894Z" fill="#EA4335"/>
<path d="M175.16 57.748C171.164 43.0324 162.96 29.8034 151.553 19.684L127.153 44.0839C132.238 48.239 136.314 53.4946 139.072 59.4543C141.83 65.4139 143.198 71.9221 143.074 78.4878V82.819C155.066 82.819 164.791 92.5417 164.791 104.535C164.791 116.528 155.067 126.007 143.074 126.007H99.5813L95.311 130.643V156.69L99.5813 160.777H143.073C174.269 161.02 199.755 136.172 199.998 104.977C200.071 95.6673 197.841 86.4842 193.508 78.2445C189.174 70.0047 182.872 62.9638 175.16 57.748" fill="#4285F4"/>
<path d="M56.1486 160.777H99.5805V126.007H56.1486C53.0741 126.007 50.0361 125.341 47.2431 124.056L41.0814 125.946L23.5744 143.331L22.0494 149.249C31.8674 156.662 43.8463 160.831 56.1486 160.777Z" fill="#34A853"/>
<path d="M56.1486 47.9878C24.9533 48.1745 -0.184912 73.6151 0.00102486 104.811C0.0523115 113.408 2.06508 121.879 5.88597 129.58C9.70687 137.281 15.2351 144.008 22.0494 149.249L47.2431 124.056C36.3135 119.117 31.4557 106.255 36.3939 95.3252C41.3314 84.3956 54.1955 79.5378 65.1243 84.4752C69.9405 86.6512 73.7979 90.5089 75.9735 95.3252L101.167 70.1315C95.8795 63.2185 89.0642 57.6225 81.2544 53.781C73.4446 49.9395 64.852 47.9568 56.1486 47.9878" fill="#FBBC05"/>
</svg>
