<svg width="74" height="57" viewBox="0 0 74 57" fill="none" xmlns="http://www.w3.org/2000/svg">
<path d="M9.43458 18.9767H47V13.8724H9.43458L18.5975 4.35286C18.8261 4.1149 19.0072 3.83273 19.1303 3.52246C19.2535 3.21219 19.3162 2.8799 19.3151 2.54456C19.3139 2.20922 19.2489 1.8774 19.1236 1.56804C18.9984 1.25868 18.8154 0.977842 18.5851 0.741559C18.3548 0.505276 18.0818 0.318176 17.7815 0.190941C17.4813 0.0637071 17.1597 -0.00116901 16.8352 1.59437e-05C16.5107 0.00120089 16.1896 0.0684238 15.8902 0.197848C15.5908 0.327271 15.319 0.516361 15.0904 0.75432L0 16.4245L15.0904 32.0948C15.31 32.3634 15.581 32.5823 15.8863 32.7376C16.1916 32.8929 16.5247 32.9813 16.8647 32.9974C17.2047 33.0134 17.5442 32.9566 17.8619 32.8306C18.1796 32.7046 18.4687 32.5121 18.7111 32.2652C18.9534 32.0183 19.1438 31.7223 19.2702 31.3958C19.3966 31.0693 19.4564 30.7193 19.4457 30.3678C19.435 30.0163 19.3542 29.6709 19.2082 29.3532C19.0622 29.0355 18.8543 28.7525 18.5975 28.5217L9.43458 18.9767Z" fill="#00FCED"/>
<path d="M52 14H60V19H52V14Z" fill="#00FCED"/>
<path d="M66 14H71V19H66V14Z" fill="#00FCED"/>
<path d="M64.5654 42.9767H27V37.8724H64.5654L55.4025 28.3529C55.1739 28.1149 54.9928 27.8327 54.8697 27.5225C54.7465 27.2122 54.6838 26.8799 54.6849 26.5446C54.6861 26.2092 54.7511 25.8774 54.8764 25.568C55.0016 25.2587 55.1846 24.9778 55.4149 24.7416C55.6452 24.5053 55.9182 24.3182 56.2185 24.1909C56.5187 24.0637 56.8403 23.9988 57.1648 24C57.4893 24.0012 57.8104 24.0684 58.1098 24.1978C58.4092 24.3273 58.681 24.5164 58.9096 24.7543L74 40.4245L58.9096 56.0948C58.69 56.3634 58.419 56.5823 58.1137 56.7376C57.8084 56.8929 57.4753 56.9813 57.1353 56.9974C56.7953 57.0134 56.4558 56.9566 56.1381 56.8306C55.8204 56.7046 55.5313 56.5121 55.2889 56.2652C55.0466 56.0183 54.8562 55.7223 54.7298 55.3958C54.6034 55.0693 54.5436 54.7193 54.5543 54.3678C54.565 54.0163 54.6458 53.6709 54.7918 53.3532C54.9378 53.0355 55.1457 52.7525 55.4025 52.5217L64.5654 42.9767Z" fill="#FCB500"/>
<path d="M22 38H14V43H22V38Z" fill="#FCB500"/>
<path d="M8 38H3V43H8V38Z" fill="#FCB500"/>
</svg>
