<svg width="52" height="49" viewBox="0 0 52 49" fill="none" xmlns="http://www.w3.org/2000/svg">
<path d="M8.7035 35.7508C9.04084 36.0928 9.29933 36.5056 9.46056 36.96C9.62179 37.4144 9.68177 37.899 9.63625 38.3795C9.40784 40.6031 8.9748 42.8004 8.34275 44.9429C12.8765 43.8829 15.6455 42.6555 16.9033 42.0123C17.6166 41.6475 18.4382 41.561 19.2107 41.7695C21.4254 42.3657 23.708 42.6658 26 42.6621C38.987 42.6621 48.75 33.4504 48.75 22.9719C48.75 12.4967 38.987 3.2817 26 3.2817C13.013 3.2817 3.25 12.4967 3.25 22.9719C3.25 27.7894 5.25525 32.2591 8.7035 35.7508ZM7.10125 48.5659C6.33122 48.72 5.5587 48.8612 4.784 48.9892C4.134 49.0942 3.64 48.4116 3.89675 47.8013C4.18532 47.1141 4.44982 46.4168 4.68975 45.7108L4.6995 45.678C5.5055 43.3152 6.162 40.5979 6.4025 38.0677C2.41475 34.0312 0 28.7477 0 22.9719C0 10.2849 11.6415 0 26 0C40.3585 0 52 10.2849 52 22.9719C52 35.659 40.3585 45.9438 26 45.9438C23.4249 45.9473 20.8604 45.6097 18.3722 44.9396C16.6822 45.8027 13.0455 47.3746 7.10125 48.5659Z" fill="white"/>
<path d="M14.4125 18.9006H28V17.0445H14.4125L17.7267 13.5829C17.8095 13.4963 17.8749 13.3937 17.9195 13.2809C17.964 13.1681 17.9867 13.0472 17.9863 12.9253C17.9859 12.8034 17.9624 12.6827 17.9171 12.5702C17.8718 12.4577 17.8056 12.3556 17.7223 12.2697C17.639 12.1837 17.5402 12.1157 17.4316 12.0694C17.323 12.0232 17.2067 11.9996 17.0893 12C16.9719 12.0004 16.8558 12.0249 16.7475 12.0719C16.6392 12.119 16.5409 12.1878 16.4582 12.2743L11 17.9726L16.4582 23.6708C16.5377 23.7685 16.6357 23.8481 16.7461 23.9046C16.8565 23.9611 16.977 23.9932 17.1 23.999C17.223 24.0049 17.3458 23.9842 17.4607 23.9384C17.5756 23.8926 17.6802 23.8226 17.7678 23.7328C17.8555 23.643 17.9243 23.5354 17.9701 23.4167C18.0158 23.2979 18.0374 23.1707 18.0335 23.0429C18.0297 22.915 18.0004 22.7894 17.9476 22.6739C17.8949 22.5584 17.8196 22.4554 17.7267 22.3715L14.4125 18.9006Z" fill="white"/>
<path d="M30 17H33V19H30V17Z" fill="white"/>
<path d="M35 17H37V19H35V17Z" fill="white"/>
<path d="M34.56 23.2743C34.4772 23.1878 34.3787 23.119 34.2703 23.0719C34.1618 23.0249 34.0455 23.0004 33.9279 23C33.8103 22.9996 33.6938 23.0232 33.5851 23.0694C33.4763 23.1157 33.3774 23.1837 33.2939 23.2697C33.2105 23.3556 33.1442 23.4577 33.0989 23.5702C33.0535 23.6827 33.0299 23.8034 33.0295 23.9253C33.0291 24.0472 33.0518 24.1681 33.0964 24.2809C33.141 24.3937 33.2066 24.4963 33.2895 24.5829L36.6089 28.0445H23V29.9006H36.6089L33.2895 33.3715C33.1964 33.4554 33.1211 33.5584 33.0682 33.6739C33.0153 33.7894 32.9861 33.915 32.9822 34.0429C32.9783 34.1707 33 34.2979 33.0458 34.4167C33.0916 34.5354 33.1605 34.643 33.2483 34.7328C33.3361 34.8226 33.4408 34.8926 33.556 34.9384C33.6711 34.9842 33.7941 35.0049 33.9172 34.999C34.0404 34.9932 34.161 34.9611 34.2717 34.9046C34.3823 34.8481 34.4804 34.7685 34.56 34.6708L40 28.9726L34.56 23.2743Z" fill="white"/>
<path d="M18 28H21V30H18V28Z" fill="white"/>
<path d="M14 28H16V30H14V28Z" fill="white"/>
</svg>
