<svg width="106" height="100" viewBox="0 0 106 100" fill="none" xmlns="http://www.w3.org/2000/svg">
<path d="M17.7417 72.8767C18.4294 73.5737 18.9563 74.4153 19.285 75.3415C19.6136 76.2677 19.7359 77.2557 19.6431 78.2351C19.1775 82.7679 18.2948 87.247 17.0064 91.6144C26.2482 89.4536 31.8928 86.9517 34.4566 85.6405C35.9108 84.8968 37.5855 84.7206 39.1604 85.1455C43.6749 86.3608 48.3278 86.9725 53 86.9651C79.4735 86.9651 99.375 68.1873 99.375 46.8273C99.375 25.4741 79.4735 6.68962 53 6.68962C26.5265 6.68962 6.625 25.4741 6.625 46.8273C6.625 56.6477 10.7126 65.759 17.7417 72.8767ZM14.4756 98.9997C12.906 99.3139 11.3312 99.6016 9.752 99.8627C8.427 100.077 7.42 98.6853 7.94338 97.441C8.53162 96.0402 9.07079 94.6189 9.55987 93.1797L9.57975 93.1128C11.2227 88.2963 12.561 82.7573 13.0513 77.5996C4.92238 69.3714 0 58.6011 0 46.8273C0 20.9653 23.7307 0 53 0C82.2693 0 106 20.9653 106 46.8273C106 72.6894 82.2693 93.6547 53 93.6547C47.7507 93.6618 42.5231 92.9736 37.4511 91.6077C34.0061 93.367 26.5927 96.5714 14.4756 98.9997V98.9997Z" fill="#5D86F0"/>
<path d="M24.4346 37.9767H62V32.8724H24.4346L33.5975 23.3529C33.8261 23.1149 34.0072 22.8327 34.1303 22.5225C34.2535 22.2122 34.3162 21.8799 34.3151 21.5446C34.3139 21.2092 34.2489 20.8774 34.1236 20.568C33.9984 20.2587 33.8154 19.9778 33.5851 19.7416C33.3548 19.5053 33.0818 19.3182 32.7815 19.1909C32.4813 19.0637 32.1597 18.9988 31.8352 19C31.5107 19.0012 31.1896 19.0684 30.8902 19.1978C30.5908 19.3273 30.319 19.5164 30.0904 19.7543L15 35.4245L30.0904 51.0948C30.31 51.3634 30.581 51.5823 30.8863 51.7376C31.1916 51.8929 31.5247 51.9813 31.8647 51.9974C32.2047 52.0134 32.5442 51.9566 32.8619 51.8306C33.1796 51.7046 33.4687 51.5121 33.7111 51.2652C33.9534 51.0183 34.1438 50.7223 34.2702 50.3958C34.3966 50.0693 34.4564 49.7193 34.4457 49.3678C34.435 49.0163 34.3542 48.6709 34.2082 48.3532C34.0622 48.0355 33.8543 47.7525 33.5975 47.5217L24.4346 37.9767Z" fill="#00FCED"/>
<path d="M67 33H75V38H67V33Z" fill="#00FCED"/>
<path d="M81 33H86V38H81V33Z" fill="#00FCED"/>
<path d="M79.5654 61.9767H42V56.8724H79.5654L70.4025 47.3529C70.1739 47.1149 69.9928 46.8327 69.8697 46.5225C69.7465 46.2122 69.6838 45.8799 69.6849 45.5446C69.6861 45.2092 69.7511 44.8774 69.8764 44.568C70.0016 44.2587 70.1846 43.9778 70.4149 43.7416C70.6452 43.5053 70.9182 43.3182 71.2185 43.1909C71.5187 43.0637 71.8403 42.9988 72.1648 43C72.4893 43.0012 72.8104 43.0684 73.1098 43.1978C73.4092 43.3273 73.681 43.5164 73.9096 43.7543L89 59.4245L73.9096 75.0948C73.69 75.3634 73.419 75.5823 73.1137 75.7376C72.8084 75.8929 72.4753 75.9813 72.1353 75.9974C71.7953 76.0134 71.4558 75.9566 71.1381 75.8306C70.8204 75.7046 70.5313 75.5121 70.2889 75.2652C70.0466 75.0183 69.8562 74.7223 69.7298 74.3958C69.6034 74.0693 69.5436 73.7193 69.5543 73.3678C69.565 73.0163 69.6458 72.6709 69.7918 72.3532C69.9378 72.0355 70.1457 71.7525 70.4025 71.5217L79.5654 61.9767Z" fill="#FCB500"/>
<path d="M37 57H29V62H37V57Z" fill="#FCB500"/>
<path d="M23 57H18V62H23V57Z" fill="#FCB500"/>
</svg>
